# xmcd
#
# Track frame offsets:
#	150
#	19085
#	35600
#	59299
#	86283
#	104428
#	128402
#	154834
#	173849
#	201249
#	224471
#	247383
#	273376
#
# Disc length: 3870 seconds
#
# Revision: 0
# Processed by: cddbd v1.5.1PL0 Copyright (c) Steve Scherf et al.
# Submitted via: EasyCDDAExtractor 7.1.2.1
#
DISCID=b70f1c0d
DTITLE=Kim Lembo and Blue Heat - Paris Burning
DYEAR=2000
DGENRE=Blues
TTITLE0=Kathy's Theme
TTITLE1=What Passes For Love
TTITLE2=Before We Think
TTITLE3=Love To Ride
TTITLE4=Goin'to Church
TTITLE5=Rain Down Tears
TTITLE6=Love Slip Upon Ya
TTITLE7=Crazy 'bout You Baby
TTITLE8=Kiss Of Fire
TTITLE9=Find The Truth
TTITLE10=You Don't Love Me
TTITLE11=Baby What You Want Me To Do
TTITLE12=Something Funky About Your Love
EXTD=
EXTT0=
EXTT1=
EXTT2=
EXTT3=
EXTT4=
EXTT5=
EXTT6=
EXTT7=
EXTT8=
EXTT9=
EXTT10=
EXTT11=
EXTT12=
PLAYORDER=
